<svg xmlns="http://www.w3.org/2000/svg" width="41.567" height="45.246" viewBox="0 0 41.567 45.246">
  <g id="page-not-found" transform="translate(-2 -0.584)">
    <g id="Grupo_218" data-name="Grupo 218" transform="translate(2.377 0.584)">
      <path id="Trazado_601" data-name="Trazado 601" d="M10.2,5.238c8.985,0,15.155-4.654,19.485-4.654S43.1,3.073,43.1,22.99,30.871,45.83,26.109,45.83C3.81,45.831-5.716,5.238,10.2,5.238Z" transform="translate(-2.29 -0.584)" fill="#efefef"/>
    </g>
    <g id="Grupo_220" data-name="Grupo 220" transform="translate(8.17 14.439)">
      <path id="Trazado_603" data-name="Trazado 603" d="M33.379,33.333H9.348a2.6,2.6,0,0,1-2.6-2.6V11.25H35.977V30.735A2.6,2.6,0,0,1,33.379,33.333Z" transform="translate(-6.75 -11.25)" fill="#f3f3f1"/>
    </g>
    <g id="Grupo_221" data-name="Grupo 221" transform="translate(8.17 9.892)">
      <path id="Trazado_604" data-name="Trazado 604" d="M35.977,12.3H6.75V10.348a2.6,2.6,0,0,1,2.6-2.6H33.379a2.6,2.6,0,0,1,2.6,2.6Z" transform="translate(-6.75 -7.75)" fill="#2fdf84"/>
    </g>
    <g id="Grupo_222" data-name="Grupo 222" transform="translate(15.964 18.985)">
      <circle id="Elipse_6" data-name="Elipse 6" cx="6.82" cy="6.82" r="6.82" fill="#2fdf84"/>
    </g>
    <g id="Grupo_226" data-name="Grupo 226" transform="translate(14.99 18.011)">
      <path id="Trazado_608" data-name="Trazado 608" d="M19.794,29.588a7.794,7.794,0,1,1,7.794-7.794A7.8,7.8,0,0,1,19.794,29.588Zm0-13.639a5.845,5.845,0,1,0,5.845,5.845A5.853,5.853,0,0,0,19.794,15.948Z" transform="translate(-12 -14)"/>
    </g>
    <g id="Grupo_227" data-name="Grupo 227" transform="translate(19.777 22.805)">
      <path id="Trazado_609" data-name="Trazado 609" d="M0,0H6.54V1.948H0Z" transform="translate(0 4.624) rotate(-45)"/>
    </g>
    <g id="Grupo_228" data-name="Grupo 228" transform="translate(19.777 22.804)">
      <path id="Trazado_610" data-name="Trazado 610" d="M0,0H1.948V6.54H0Z" transform="translate(0 1.378) rotate(-45)"/>
    </g>
    <g id="Grupo_229" data-name="Grupo 229" transform="translate(7.196 8.918)">
      <path id="Trazado_611" data-name="Trazado 611" d="M33.6,35.578H9.572A3.575,3.575,0,0,1,6,32.005V10.572A3.575,3.575,0,0,1,9.572,7H33.6a3.575,3.575,0,0,1,3.572,3.572V32.005A3.575,3.575,0,0,1,33.6,35.578ZM9.572,8.948a1.626,1.626,0,0,0-1.624,1.624V32.005a1.626,1.626,0,0,0,1.624,1.624H33.6a1.626,1.626,0,0,0,1.624-1.624V10.572A1.626,1.626,0,0,0,33.6,8.948Z" transform="translate(-6 -7)"/>
    </g>
    <g id="Grupo_230" data-name="Grupo 230" transform="translate(8.17 13.465)">
      <path id="Trazado_612" data-name="Trazado 612" d="M6.75,10.5H35.977v1.948H6.75Z" transform="translate(-6.75 -10.5)"/>
    </g>
    <g id="Grupo_231" data-name="Grupo 231" transform="translate(2 35.547)">
      <path id="Trazado_613" data-name="Trazado 613" d="M2,27.5H43.567v1.948H2Z" transform="translate(-2 -27.5)"/>
    </g>
  </g>
</svg>
