<svg id="question" xmlns="http://www.w3.org/2000/svg" width="21.254" height="21.254" viewBox="0 0 21.254 21.254">
  <path id="Trazado_638" data-name="Trazado 638" d="M21.254,10.627A10.627,10.627,0,1,1,10.627,0,10.627,10.627,0,0,1,21.254,10.627Zm0,0" fill="#5590ff"/>
  <g id="Grupo_255" data-name="Grupo 255" transform="translate(2.325 2.324)">
    <path id="Trazado_639" data-name="Trazado 639" d="M64.3,72.6a8.3,8.3,0,1,1,8.3-8.3A8.312,8.312,0,0,1,64.3,72.6Zm0-15.359A7.057,7.057,0,1,0,71.359,64.3,7.065,7.065,0,0,0,64.3,57.245Zm0,0" transform="translate(-56 -56)" fill="#fff"/>
    <path id="Trazado_640" data-name="Trazado 640" d="M196.54,163.508a.623.623,0,0,1-.623-.623v-1.627a.623.623,0,0,1,.623-.623,1.33,1.33,0,1,0-1.33-1.33.623.623,0,0,1-1.245,0,2.575,2.575,0,1,1,3.2,2.5v1.08A.623.623,0,0,1,196.54,163.508Zm0,0" transform="translate(-188.238 -152.549)" fill="#fff"/>
    <path id="Trazado_641" data-name="Trazado 641" d="M238.029,333.243a.814.814,0,1,1-.814-.814A.813.813,0,0,1,238.029,333.243Zm0,0" transform="translate(-228.914 -320.955)" fill="#fff"/>
  </g>
</svg>
