<svg width="20" height="19" viewBox="0 0 20 19" fill="none" xmlns="http://www.w3.org/2000/svg">
<path d="M4.04181 6.99321C5.94396 6.99321 7.48596 5.42773 7.48596 3.49661C7.48596 1.56548 5.94396 0 4.04181 0C2.13966 0 0.597656 1.56548 0.597656 3.49661C0.597656 5.42773 2.13966 6.99321 4.04181 6.99321Z" fill="#FAFAFA"/>
<path d="M15.8611 6.99321C17.7633 6.99321 19.3053 5.42773 19.3053 3.49661C19.3053 1.56548 17.7633 0 15.8611 0C13.959 0 12.417 1.56548 12.417 3.49661C12.417 5.42773 13.959 6.99321 15.8611 6.99321Z" fill="#FAFAFA"/>
<path d="M0 13.0991C0 13.0991 8.96526 17.3011 20 13.0991C20 13.0991 17.8334 19.0001 10.5417 19.0001C3.24991 19.0001 0 13.0991 0 13.0991Z" fill="#FAFAFA"/>
</svg>
