<svg width="24" height="24" viewBox="0 0 24 24" fill="none" xmlns="http://www.w3.org/2000/svg">
<path d="M20.4853 3.51469C18.2188 1.24823 15.2054 0 12 0C8.79469 0 5.78123 1.24819 3.51473 3.51469L3.51464 3.51473L3.51459 3.51478C1.24819 5.78133 0 8.79474 0 12C0 12 0 12.0001 0 12.0001V12.0001C4.6875e-05 14.6206 0.829875 17.1104 2.39986 19.2004C2.53266 19.3772 2.74092 19.4812 2.96203 19.4812H21.0381C21.2592 19.4812 21.4674 19.3772 21.6002 19.2003C23.1701 17.1103 23.9999 14.6205 24 12.0001V12.0001H24C24 12.0001 24 12 24 12C24 8.79469 22.7518 5.78119 20.4853 3.51469ZM20.6799 18.075H3.3202C2.20134 16.4815 1.55527 14.6425 1.42945 12.7032L2.20941 12.7031C2.59772 12.7031 2.91253 12.3883 2.91248 12C2.91248 11.6116 2.59763 11.2969 2.20931 11.2969L1.43016 11.2969C1.58775 8.90419 2.54287 6.72605 4.03214 5.02655L4.57983 5.57419C4.71713 5.71148 4.89703 5.78011 5.07698 5.78011C5.25694 5.78011 5.43689 5.71144 5.57419 5.57414C5.84878 5.29955 5.84873 4.85438 5.57414 4.57978L5.0265 4.03219C6.726 2.54292 8.90414 1.58775 11.2969 1.43016V2.20941C11.2969 2.59772 11.6117 2.91253 12 2.91253C12.3883 2.91253 12.7031 2.59772 12.7031 2.20941V1.43016C15.0959 1.58775 17.274 2.54292 18.9735 4.03223L18.4259 4.57978C18.1513 4.85433 18.1512 5.29955 18.4258 5.57414C18.5631 5.71144 18.7431 5.78011 18.923 5.78011C19.1029 5.78011 19.2828 5.71148 19.4201 5.57419L19.9678 5.02655C21.4571 6.72605 22.4122 8.90419 22.5698 11.2969L21.7906 11.2969C21.7906 11.2969 21.7906 11.2969 21.7906 11.2969C21.4023 11.2969 21.0875 11.6116 21.0875 12C21.0874 12.3883 21.4022 12.7031 21.7905 12.7031L22.5705 12.7032C22.4447 14.6425 21.7987 16.4814 20.6799 18.075Z" fill="white"/>
<path d="M16.5189 22.5938H7.48145C7.09313 22.5938 6.77832 22.9086 6.77832 23.2969C6.77832 23.6852 7.09313 24 7.48145 24H16.5189C16.9073 24 17.2221 23.6852 17.2221 23.2969C17.2221 22.9086 16.9073 22.5938 16.5189 22.5938Z" fill="white"/>
<path d="M16.4073 7.59233C16.1328 7.31769 15.6876 7.31769 15.413 7.59233L13.5368 9.46841C13.0884 9.19513 12.5621 9.03749 11.9996 9.03749C10.3661 9.03749 9.03711 10.3664 9.03711 12C9.03711 13.6335 10.3661 14.9625 11.9996 14.9625C13.6332 14.9625 14.9621 13.6335 14.9621 12C14.9621 11.4375 14.8045 10.9112 14.5312 10.4628L16.4073 8.58669C16.6819 8.3121 16.6819 7.86693 16.4073 7.59233ZM11.9997 13.5562C11.1415 13.5562 10.4434 12.8581 10.4434 12C10.4434 11.1419 11.1416 10.4437 11.9997 10.4437C12.8578 10.4437 13.5559 11.1418 13.5559 12C13.5559 12.8581 12.8578 13.5562 11.9997 13.5562Z" fill="white"/>
</svg>
