<svg width="463" height="63" viewBox="0 0 463 63" fill="none" xmlns="http://www.w3.org/2000/svg">
<path d="M39.631 11.4162C40.0079 11.6376 40.2849 11.9261 40.463 12.2798C40.6411 12.6346 40.6075 13.0555 40.3642 13.5427L34.7411 21.5189C34.4967 21.8965 34.2349 22.1124 33.959 22.1677C33.681 22.223 33.3432 22.1287 32.9446 21.8846C31.8562 21.0654 30.6582 20.434 29.3504 19.9903C28.0416 19.5477 26.6556 19.3263 25.1915 19.3263C23.3722 19.3263 21.6984 19.6702 20.1669 20.357C18.6365 21.0437 17.3157 21.9854 16.2067 23.1821C15.0966 24.3788 14.2321 25.774 13.6119 27.3699C12.9895 28.9658 12.6799 30.6723 12.6799 32.4885C12.6799 34.3057 12.9895 36.0058 13.6119 37.5897C14.2321 39.1737 15.0966 40.5591 16.2067 41.7439C17.3157 42.9297 18.6365 43.866 20.1669 44.5527C21.6973 45.2395 23.3722 45.5834 25.1915 45.5834C26.6556 45.5834 28.0535 45.3566 29.3852 44.902C30.7157 44.4486 31.9246 43.8106 33.0119 42.9904C33.4105 42.7463 33.744 42.6476 34.0101 42.691C34.2762 42.7355 34.5434 42.9351 34.8095 43.2899L40.4999 51.4658C40.7432 51.9529 40.7769 52.363 40.5999 52.6961C40.4217 53.028 40.1437 53.3058 39.7679 53.5271C37.6824 54.9234 35.4362 56.0039 33.0293 56.7677C30.6212 57.5326 28.0872 57.9145 25.4261 57.9145C23.0746 57.9145 20.8175 57.615 18.6538 57.0173C16.4924 56.4184 14.4678 55.5667 12.5822 54.4579C10.6966 53.3503 8.98261 52.0267 7.44134 50.4861C5.90006 48.9455 4.57385 47.24 3.46379 45.3675C2.35481 43.4949 1.50108 41.4781 0.902606 39.318C0.299782 37.1579 0 34.9035 0 32.5547C0 30.2069 0.299782 27.9514 0.898261 25.7913C1.49674 23.6313 2.35047 21.6036 3.45944 19.7093C4.56951 17.815 5.89463 16.0922 7.43699 14.5408C8.97935 12.9894 10.6922 11.6658 12.5778 10.5689C14.4634 9.47207 16.488 8.61933 18.6495 8.00961C20.8131 7.39989 23.0702 7.09503 25.4218 7.09503C28.084 7.09503 30.5963 7.46607 32.9587 8.20924C35.3222 8.95132 37.5456 10.02 39.631 11.4162Z" fill="#603888"/>
<path d="M46.1536 36.1109C46.1536 34.0723 46.4143 32.1108 46.9357 30.2274C47.457 28.3451 48.188 26.5994 49.1319 24.9927C50.0736 23.387 51.2054 21.9245 52.5262 20.6053C53.8459 19.2871 55.3155 18.1632 56.9349 17.2323C58.5544 16.3014 60.2999 15.5821 62.1757 15.0722C64.0504 14.5623 66.0077 14.3074 68.0497 14.3074C71.066 14.3074 73.8998 14.8672 76.5522 15.9857C79.2025 17.1054 81.5095 18.6449 83.4733 20.6053C85.4371 22.5668 86.9892 24.8712 88.1319 27.5184C89.2745 30.1666 89.8458 33.0308 89.8458 36.1109C89.8458 38.1494 89.5841 40.1044 89.0638 41.977C88.5424 43.8495 87.8104 45.5941 86.8676 47.2117C85.9248 48.8293 84.7941 50.2972 83.4733 51.6153C82.1525 52.9346 80.6829 54.064 79.0645 55.0057C77.445 55.9485 75.7093 56.6732 73.8574 57.1831C72.0055 57.6919 70.0689 57.948 68.0508 57.948C66.0088 57.948 64.0515 57.693 62.1768 57.1831C60.3021 56.6743 58.5555 55.9485 56.936 55.0057C55.3165 54.064 53.847 52.9346 52.5273 51.6153C51.2065 50.2972 50.0747 48.8293 49.133 47.2117C48.1891 45.5941 47.4581 43.8495 46.9368 41.977C46.4132 40.1055 46.1536 38.1494 46.1536 36.1109ZM58.2992 36.1109C58.2992 37.5733 58.5262 38.9414 58.9813 40.2151C59.4353 41.4899 60.0794 42.5921 60.9103 43.5219C61.7423 44.4527 62.7514 45.1894 63.9375 45.7319C65.1246 46.2754 66.4606 46.5466 67.9476 46.5466C69.39 46.5466 70.6934 46.2754 71.8578 45.7319C73.0222 45.1894 74.0095 44.4527 74.8187 43.5219C75.6279 42.591 76.2492 41.4888 76.6826 40.2151C77.1149 38.9414 77.3321 37.5733 77.3321 36.1109C77.3321 34.6929 77.1159 33.3411 76.6826 32.0555C76.2503 30.7709 75.629 29.6404 74.8187 28.6651C74.0095 27.6909 73.0211 26.9195 71.8578 26.3553C70.6934 25.7901 69.39 25.508 67.9476 25.508C66.4606 25.508 65.1246 25.7912 63.9375 26.3553C62.7514 26.9206 61.7412 27.6909 60.9103 28.6651C60.0783 29.6404 59.4342 30.7709 58.9813 32.0555C58.5262 33.3411 58.2992 34.6929 58.2992 36.1109Z" fill="#603888"/>
<path d="M97.3303 15.5665C97.6181 15.3235 97.9223 15.1673 98.2449 15.1011C98.5653 15.0349 98.8716 15.0013 99.1594 15.0013H104.184C104.583 15.0013 104.927 15.0729 105.216 15.2172C105.504 15.3615 105.748 15.5557 105.947 15.7976C106.147 16.0406 106.307 16.3173 106.43 16.6265C106.552 16.9368 106.669 17.2557 106.779 17.5866L107.478 20.504C107.811 19.8194 108.348 19.112 109.092 18.3829C109.835 17.6539 110.756 16.991 111.855 16.3943C112.953 15.7976 114.222 15.3061 115.665 14.9199C117.105 14.5337 118.715 14.3395 120.49 14.3395C123.018 14.3395 125.275 14.8255 127.261 15.7976C129.246 16.7697 130.932 18.0954 132.318 19.7749C133.704 21.4543 134.759 23.4159 135.48 25.6616C136.201 27.9074 136.561 30.304 136.561 32.8513V54.6212C136.561 55.4642 136.378 56.0999 136.012 56.5328C135.645 56.9646 135.064 57.1816 134.265 57.1816H126.579C125.625 57.1816 124.97 57.021 124.615 56.6988C124.26 56.3788 124.083 55.7517 124.083 54.8219V33.1855C124.083 32.2329 123.866 31.3303 123.433 30.4765C123.001 29.6237 122.429 28.8708 121.719 28.2166C121.01 27.5635 120.205 27.0481 119.308 26.6706C118.408 26.2941 117.494 26.1054 116.562 26.1054C115.764 26.1054 114.948 26.2833 114.117 26.637C113.285 26.9917 112.52 27.4843 111.821 28.1157C111.121 28.7471 110.535 29.4892 110.058 30.343C109.58 31.1958 109.309 32.1212 109.242 33.1182V54.7221C109.242 55.0996 109.171 55.4761 109.027 55.8515C108.883 56.229 108.666 56.5165 108.378 56.7162C108.089 56.8941 107.817 57.0156 107.562 57.0818C107.308 57.149 107.013 57.1816 106.68 57.1816H99.1594C98.2058 57.1816 97.5182 56.9483 97.0968 56.4829C96.6753 56.0175 96.4646 55.398 96.4646 54.6212V17.4564C96.4646 17.0366 96.5591 16.6503 96.747 16.2967C96.9349 15.943 97.1956 15.6674 97.5291 15.4678L97.3303 15.5665Z" fill="#603888"/>
<path d="M147.11 8.39087C147.11 7.70412 147.337 7.18878 147.792 6.84595C148.246 6.50312 148.895 6.17547 149.738 5.86519L157.291 3.2397C157.402 3.218 157.507 3.20715 157.607 3.20715C157.706 3.20715 157.801 3.20715 157.89 3.20715C158.71 3.20715 159.259 3.44583 159.536 3.92211C159.813 4.39839 159.952 5.02438 159.952 5.80009L159.92 14.9405H164.478C165.188 14.9405 165.764 15.151 166.209 15.5719C166.653 15.9928 166.875 16.6243 166.875 17.4662V23.8812C166.875 24.8121 166.653 25.4934 166.209 25.9252C165.764 26.357 165.188 26.574 164.478 26.574H159.92L159.952 54.6255C159.952 55.4685 159.708 56.1042 159.221 56.5371C158.733 56.9689 158.056 57.1859 157.191 57.1859H149.67C147.961 57.1859 147.107 56.3331 147.107 54.6266L147.075 26.5751H143.647C141.938 26.5751 141.086 25.6779 141.086 23.8823V17.4672C141.086 15.7835 141.939 14.9416 143.647 14.9416H147.075L147.11 8.39087Z" fill="#603888"/>
<path d="M207.27 52.1307C205.318 53.9262 203.122 55.3279 200.682 56.3358C198.242 57.3437 195.658 57.8482 192.928 57.8482C189.889 57.8482 187.016 57.2948 184.311 56.1872C181.604 55.0795 179.229 53.5443 177.19 51.5839C175.148 49.6224 173.529 47.3126 172.331 44.6535C171.133 41.9943 170.534 39.103 170.534 35.9785C170.534 34.0289 170.773 32.139 171.249 30.3109C171.726 28.4828 172.402 26.7708 173.279 25.176C174.155 23.5801 175.22 22.1133 176.473 20.7724C177.726 19.4314 179.13 18.2847 180.683 17.3321C182.235 16.3796 183.922 15.6375 185.741 15.1048C187.559 14.5732 189.479 14.3074 191.498 14.3074C193.339 14.3074 195.124 14.5515 196.856 15.0386C198.586 15.5268 200.211 16.2136 201.731 17.0989C203.25 17.9852 204.641 19.0495 205.906 20.2896C207.17 21.5307 208.257 22.8879 209.168 24.3613C210.077 25.8357 210.782 27.4077 211.28 29.0806C211.779 30.7536 212.028 32.4764 212.028 34.2491C212.028 35.4013 212.011 36.343 211.98 37.0743C211.946 37.8055 211.774 38.387 211.464 38.8199C211.152 39.2517 210.636 39.5511 209.916 39.7171C209.195 39.8842 208.136 39.9666 206.738 39.9666H182.78C183.001 41.3846 183.45 42.5704 184.128 43.523C184.805 44.4766 185.586 45.235 186.473 45.7991C187.361 46.3644 188.304 46.769 189.303 47.0121C190.301 47.2562 191.244 47.3777 192.131 47.3777C192.929 47.3777 193.75 47.2941 194.593 47.1281C195.436 46.9621 196.251 46.7408 197.039 46.4642C197.826 46.1875 198.547 45.8653 199.202 45.4997C199.857 45.1341 200.383 44.7522 200.783 44.3529C201.137 44.0654 201.443 43.8495 201.698 43.7042C201.952 43.5609 202.224 43.4883 202.513 43.4883C202.801 43.4883 203.096 43.5881 203.395 43.7877C203.693 43.9873 204.032 44.2759 204.409 44.6513L207.936 48.6405C208.18 48.9291 208.336 49.1884 208.403 49.4206C208.469 49.6538 208.503 49.8914 208.503 50.1355C208.503 50.5792 208.381 50.9622 208.137 51.2823C207.891 51.6056 207.603 51.8876 207.27 52.1307ZM191.265 24.4448C190.4 24.4448 189.562 24.6173 188.753 24.9601C187.943 25.304 187.183 25.764 186.473 26.339C185.764 26.9151 185.125 27.5693 184.56 28.2995C183.994 29.0307 183.534 29.7728 183.179 30.5268H200.183C199.716 29.6632 199.212 28.8647 198.669 28.1335C198.124 27.4023 197.503 26.76 196.805 26.2056C196.106 25.6523 195.307 25.2194 194.41 24.9091C193.51 24.5999 192.463 24.4448 191.265 24.4448Z" fill="#603888"/>
<path d="M219.849 15.5665C220.137 15.3235 220.441 15.1673 220.764 15.1011C221.084 15.0349 221.39 15.0013 221.678 15.0013H226.703C227.102 15.0013 227.446 15.0729 227.735 15.2172C228.023 15.3615 228.267 15.5557 228.466 15.7976C228.666 16.0406 228.826 16.3173 228.949 16.6265C229.071 16.9368 229.188 17.2557 229.298 17.5866L229.997 20.504C230.33 19.8194 230.868 19.112 231.611 18.3829C232.354 17.6539 233.275 16.991 234.373 16.3943C235.472 15.7976 236.741 15.3061 238.184 14.9199C239.624 14.5337 241.234 14.3395 243.008 14.3395C245.537 14.3395 247.794 14.8255 249.78 15.7976C251.765 16.7697 253.45 18.0954 254.837 19.7749C256.223 21.4543 257.277 23.4159 257.999 25.6616C258.72 27.9074 259.079 30.304 259.079 32.8513V54.6212C259.079 55.4642 258.897 56.0999 258.531 56.5328C258.164 56.9646 257.583 57.1816 256.783 57.1816H249.096C248.143 57.1816 247.488 57.021 247.133 56.6988C246.777 56.3788 246.6 55.7517 246.6 54.8219V33.1855C246.6 32.2329 246.384 31.3303 245.951 30.4765C245.519 29.6237 244.947 28.8708 244.237 28.2166C243.528 27.5635 242.723 27.0481 241.826 26.6706C240.926 26.2941 240.012 26.1054 239.08 26.1054C238.281 26.1054 237.466 26.2833 236.635 26.637C235.803 26.9917 235.038 27.4843 234.339 28.1157C233.639 28.7471 233.053 29.4892 232.576 30.343C232.098 31.1958 231.826 32.1212 231.759 33.1182V54.7221C231.759 55.0996 231.687 55.4761 231.544 55.8515C231.399 56.229 231.182 56.5165 230.894 56.7162C230.605 56.8941 230.334 57.0156 230.079 57.0818C229.825 57.149 229.53 57.1816 229.197 57.1816H221.676C220.722 57.1816 220.035 56.9483 219.613 56.4829C219.192 56.0175 218.981 55.398 218.981 54.6212V17.4564C218.981 17.0366 219.076 16.6503 219.264 16.2967C219.452 15.943 219.712 15.6674 220.046 15.4678L219.849 15.5665Z" fill="#603888"/>
<path d="M269.627 8.39087C269.627 7.70412 269.854 7.18878 270.31 6.84595C270.764 6.50312 271.413 6.17547 272.256 5.86519L279.809 3.2397C279.92 3.218 280.025 3.20715 280.125 3.20715C280.224 3.20715 280.319 3.20715 280.408 3.20715C281.228 3.20715 281.777 3.44583 282.054 3.92211C282.331 4.39839 282.47 5.02438 282.47 5.80009L282.438 14.9405H286.996C287.706 14.9405 288.282 15.151 288.727 15.5719C289.171 15.9928 289.391 16.6243 289.391 17.4662V23.8812C289.391 24.8121 289.17 25.4934 288.727 25.9252C288.282 26.357 287.706 26.574 286.996 26.574H282.438L282.47 54.6255C282.47 55.4685 282.226 56.1042 281.739 56.5371C281.251 56.9689 280.574 57.1859 279.709 57.1859H272.188C270.479 57.1859 269.626 56.3331 269.626 54.6266L269.594 26.5751H266.166C264.457 26.5751 263.604 25.6779 263.604 23.8823V17.4672C263.604 15.7835 264.457 14.9416 266.166 14.9416H269.594L269.627 8.39087Z" fill="#603888"/>
<path d="M353.423 39.0736C353.423 37.0351 353.683 35.0735 354.205 33.1901C354.726 31.3067 355.458 29.5622 356.401 27.9554C357.344 26.3498 358.476 24.8873 359.795 23.5681C361.115 22.2499 362.586 21.1259 364.204 20.1951C365.824 19.2642 367.57 18.5449 369.446 18.035C371.321 17.5251 373.278 17.2701 375.319 17.2701C378.335 17.2701 381.17 17.83 383.821 18.9485C386.473 20.0681 388.78 21.6076 390.742 23.5681C392.706 25.5296 394.258 27.8339 395.401 30.4811C396.543 33.1294 397.115 35.9936 397.115 39.0736C397.115 41.1122 396.853 43.0672 396.333 44.9397C395.812 46.8123 395.08 48.5568 394.137 50.1744C393.193 51.792 392.062 53.2599 390.742 54.5781C389.422 55.8974 387.952 57.0267 386.334 57.9685C384.714 58.9112 382.977 59.636 381.126 60.1459C379.274 60.6558 377.338 60.9107 375.319 60.9107C373.278 60.9107 371.321 60.6558 369.446 60.1459C367.571 59.6371 365.824 58.9112 364.204 57.9685C362.585 57.0267 361.115 55.8974 359.795 54.5781C358.476 53.2599 357.344 51.792 356.401 50.1744C355.458 48.5568 354.726 46.8123 354.205 44.9397C353.683 43.0683 353.423 41.1133 353.423 39.0736ZM365.568 39.0736C365.568 40.5361 365.795 41.9042 366.25 43.1778C366.706 44.4515 367.349 45.5538 368.181 46.4847C369.013 47.4155 370.021 48.1522 371.208 48.6946C372.395 49.2382 373.731 49.5094 375.218 49.5094C376.659 49.5094 377.963 49.2382 379.128 48.6946C380.292 48.1522 381.279 47.4155 382.089 46.4847C382.898 45.5538 383.519 44.4515 383.953 43.1778C384.385 41.9042 384.602 40.5361 384.602 39.0736C384.602 37.6556 384.386 36.3038 383.953 35.0182C383.521 33.7337 382.899 32.6032 382.089 31.6279C381.279 30.6536 380.291 29.8833 379.128 29.3181C377.963 28.7529 376.659 28.4708 375.218 28.4708C373.731 28.4708 372.395 28.7529 371.208 29.3181C370.021 29.8833 369.011 30.6536 368.181 31.6279C367.349 32.6032 366.704 33.7337 366.25 35.0182C365.796 36.3038 365.568 37.6556 365.568 39.0736Z" fill="#B12D84"/>
<path d="M317.343 33.7587C317.343 37.2228 314.532 40.0306 311.064 40.0306C307.594 40.0306 304.782 37.2228 304.782 33.7587C304.782 30.2946 307.594 27.4857 311.064 27.4857C314.532 27.4857 317.343 30.2946 317.343 33.7587Z" fill="#603888"/>
<path d="M335.481 33.7593C335.481 37.2234 332.669 40.0323 329.202 40.0323C325.733 40.0323 322.921 37.2234 322.921 33.7593C322.921 30.2952 325.733 27.4863 329.202 27.4863C332.669 27.4863 335.481 30.2941 335.481 33.7593Z" fill="#603888"/>
<path d="M303.328 48.2857C303.328 48.2857 303.933 48.3888 304.991 48.5667C305.98 48.7457 307.392 49.0007 309.085 49.3077C309.9 49.465 310.778 49.6028 311.681 49.7623C312.589 49.9055 313.529 50.0639 314.488 50.1908C314.964 50.2537 315.448 50.3167 315.938 50.3818C316.422 50.4306 316.913 50.4805 317.406 50.5315C318.388 50.6161 319.374 50.7018 320.354 50.7235C321.335 50.7691 322.306 50.7528 323.267 50.7333C323.743 50.692 324.225 50.7007 324.695 50.6627C325.164 50.6107 325.638 50.5987 326.098 50.538C327.022 50.4393 327.927 50.3167 328.798 50.168C329.673 50.027 330.509 49.8491 331.304 49.6809C331.707 49.6093 332.074 49.4867 332.447 49.4086C332.82 49.3283 333.178 49.248 333.508 49.1515C334.168 48.9627 334.794 48.8401 335.288 48.6904C336.29 48.4126 336.933 48.2857 336.933 48.2857C336.933 48.2857 336.684 48.8585 336.127 49.8057C335.856 50.2885 335.447 50.7918 334.978 51.3972C334.5 51.9918 333.891 52.5928 333.194 53.2351C332.834 53.5388 332.443 53.8383 332.04 54.1594C331.628 54.4675 331.171 54.7312 330.71 55.0349C329.766 55.5915 328.714 56.1112 327.573 56.5169C326.434 56.9357 325.211 57.2395 323.95 57.4489C322.688 57.6257 321.389 57.7147 320.104 57.6604C318.815 57.6235 317.545 57.4369 316.321 57.182C315.102 56.9042 313.929 56.5538 312.844 56.1057C310.66 55.24 308.81 54.0867 307.374 52.928C305.931 51.7759 304.905 50.6096 304.254 49.7417C303.606 48.864 303.328 48.2857 303.328 48.2857Z" fill="#B12D84"/>
<path d="M439.73 32.1931C439.213 30.2197 438.424 28.4957 437.362 27.0203C436.299 25.5448 434.954 24.3796 433.327 23.5247C431.7 22.6708 429.774 22.2434 427.552 22.2434C426.401 22.2434 425.31 22.3747 424.277 22.6361C423.243 22.8976 422.303 23.2383 421.455 23.6549C420.608 24.0725 419.856 24.5477 419.203 25.0815C418.55 25.6153 418.038 26.1545 417.669 26.698V13.9362C417.669 13.8624 417.664 13.7876 417.657 13.7116C417.66 13.6335 417.663 13.5543 417.663 13.4751C417.663 11.5971 416.622 10.075 415.337 10.075H395.744C394.459 10.075 393.418 11.5971 393.418 13.4751C393.418 15.352 394.459 16.8742 395.744 16.8742H406.441V24.8309V24.9763V33.6632V33.8671V57.6408C406.441 58.3221 406.626 58.8679 406.997 59.2769C407.367 59.6859 407.971 59.8898 408.81 59.8898H415.418C415.711 59.8898 415.969 59.8606 416.194 59.802C416.416 59.7434 416.656 59.6371 416.909 59.4808C417.162 59.3062 417.353 59.0523 417.48 58.7214C417.606 58.3905 417.67 58.0596 417.67 57.7287V38.4531C417.728 37.5765 417.937 36.779 418.299 36.0576C418.659 35.3372 419.107 34.7188 419.643 34.2035C420.18 33.6881 420.784 33.2889 421.456 33.0057C422.13 32.7236 422.816 32.5826 423.518 32.5826C424.337 32.5826 425.111 32.7334 425.842 33.035C426.573 33.3377 427.212 33.7554 427.758 34.2913C428.303 34.8273 428.738 35.4554 429.059 36.1747C429.381 36.8951 429.542 37.6741 429.542 38.5116V57.8166C429.542 58.6335 429.697 59.1847 430.009 59.4667C430.32 59.7488 430.895 59.8898 431.733 59.8898H438.487C439.189 59.8898 439.7 59.7 440.023 59.3203C440.345 58.9405 440.505 58.3807 440.505 57.6408V38.5116C440.504 36.2724 440.246 34.1666 439.73 32.1931Z" fill="#B12D84"/>
<path d="M450.135 5.91075C450.035 5.4757 449.955 5.0873 449.898 4.74664C449.838 4.40597 449.819 4.0664 449.837 3.73007C449.883 2.87191 450.191 2.16671 450.759 1.61341C451.325 1.06119 452.146 0.812743 453.22 0.869159C457.974 1.12411 460.52 2.3978 460.857 4.69022C461.255 7.59887 461.606 10.5216 461.91 13.4563C462.214 16.391 462.461 19.3615 462.654 22.3667C462.844 25.3719 462.958 28.4194 462.992 31.5103C463.025 34.6002 462.957 37.7529 462.784 40.9686C462.752 41.5827 462.689 42.1696 462.596 42.7327C462.504 43.2968 462.354 43.7959 462.147 44.2299C461.939 44.6638 461.667 45.011 461.33 45.2692C460.993 45.5274 460.549 45.6413 459.997 45.612L456.163 44.8537C455.37 44.7192 454.823 44.4523 454.521 44.0519C454.22 43.6516 454.057 43.0983 454.033 42.3898C454.089 36.7711 453.792 30.8713 453.14 24.6917C452.487 18.5109 451.485 12.251 450.135 5.91075ZM456.571 62.9847C455.682 62.937 454.853 62.7612 454.084 62.4596C453.317 62.157 452.661 61.7523 452.119 61.2478C451.577 60.7422 451.156 60.1585 450.853 59.4978C450.548 58.8371 450.419 58.1232 450.459 57.3573C450.529 56.0706 451.098 55.0573 452.168 54.3152C453.239 53.5742 454.631 53.2487 456.35 53.341C457.147 53.3833 457.906 53.571 458.627 53.9008C459.348 54.2317 459.976 54.6569 460.518 55.1766C461.059 55.6974 461.481 56.2952 461.784 56.9722C462.085 57.6491 462.217 58.3391 462.18 59.0432C462.109 60.3603 461.571 61.3682 460.565 62.0669C459.558 62.7677 458.227 63.0737 456.571 62.9847Z" fill="#B12D84"/>
</svg>
