<svg width="26" height="23" viewBox="0 0 26 23" fill="none" xmlns="http://www.w3.org/2000/svg">
<g clip-path="url(#clip0_9184_398)">
<path d="M10.5773 4.73534C10.5773 7.35035 8.45537 9.46987 5.83734 9.46987C3.2185 9.46987 1.0957 7.35035 1.0957 4.73534C1.0957 2.12034 3.2185 0 5.83734 0C8.45537 0 10.5773 2.12034 10.5773 4.73534Z" fill="#FAFAFA"/>
<path d="M24.2707 4.73632C24.2707 7.35132 22.1479 9.47166 19.5307 9.47166C16.9119 9.47166 14.7891 7.35132 14.7891 4.73632C14.7891 2.12132 16.9119 0.000976563 19.5307 0.000976563C22.1479 0.000976562 24.2707 2.1205 24.2707 4.73632Z" fill="#FAFAFA"/>
<path d="M0.680331 16.7754C0.364504 16.3448 0.72865 15.8247 1.25531 15.9133C2.00145 16.0484 3.06735 16.2409 4.34562 16.4726C4.96057 16.5914 5.6239 16.6954 6.30526 16.8158C6.99072 16.9239 7.69994 17.0435 8.42394 17.1393C8.78389 17.1868 9.14877 17.2343 9.51855 17.2834C9.88424 17.3203 10.2549 17.358 10.6271 17.3965C11.3683 17.4603 12.1128 17.525 12.8524 17.5414C13.5928 17.5758 14.3258 17.5635 15.0514 17.5488C15.4106 17.5177 15.7746 17.5242 16.1296 17.4956C16.483 17.4562 16.8413 17.4472 17.1882 17.4014C17.8859 17.3268 18.5689 17.2343 19.2265 17.1221C19.8874 17.0156 20.5179 16.8813 21.1181 16.7544C21.4223 16.7003 21.6994 16.6078 21.9815 16.5488C22.2627 16.4882 22.5333 16.4276 22.7817 16.3547C23.2802 16.2122 23.7525 16.1197 24.1256 16.0066C24.6465 15.8623 25.0427 16.3649 24.7695 16.8313C24.7662 16.837 24.7628 16.8428 24.7594 16.8486C24.5544 17.213 24.2461 17.593 23.8919 18.05C23.5311 18.4988 23.0712 18.9525 22.5448 19.4374C22.2734 19.6667 21.9782 19.8927 21.674 20.1351C21.3632 20.3677 21.018 20.5667 20.6696 20.796C19.9571 21.2162 19.1634 21.6085 18.3016 21.9148C17.4423 22.2309 16.5191 22.4602 15.5672 22.6183C14.6144 22.7518 13.6338 22.8189 12.6638 22.778C11.6906 22.7501 10.732 22.6093 9.80799 22.4168C8.88803 22.2071 8.00251 21.9426 7.1834 21.6044C5.53452 20.9508 4.13818 20.0803 3.05423 19.2056C1.96455 18.3358 1.19054 17.4554 0.69858 16.8002C0.692453 16.7919 0.68637 16.7837 0.680331 16.7754Z" fill="#F0EEF2"/>
</g>
<defs>
<clipPath id="clip0_9184_398">
<rect width="25.3678" height="22.7903" fill="white"/>
</clipPath>
</defs>
</svg>
