<svg width="20" height="21" viewBox="0 0 20 21" fill="none" xmlns="http://www.w3.org/2000/svg">
<path d="M19.9961 5.43262C19.9727 5.2175 19.8391 5.02711 19.6393 4.93387L10.2643 0.558867C10.0967 0.480703 9.9032 0.480703 9.73566 0.558867L0.360664 4.93387C0.160898 5.02711 0.0272266 5.21746 0.00382812 5.43262C0.00332031 5.43711 0 5.49695 0 5.50023V16.1252C0 16.3808 0.155586 16.6106 0.392891 16.7055L9.76789 20.4555C9.84238 20.4853 9.92121 20.5002 10 20.5002C10.0788 20.5002 10.1576 20.4854 10.2321 20.4555L19.6071 16.7055C19.8444 16.6106 20 16.3808 20 16.1252V5.50023C20 5.49695 19.9966 5.43707 19.9961 5.43262V5.43262ZM10 1.81492L17.8025 5.45609L14.798 6.65789L6.84871 3.28555L10 1.81492ZM5.32461 3.9968L13.1506 7.31684L10 8.57707L2.1975 5.45609L5.32461 3.9968ZM1.25 6.42336L9.375 9.67336V18.9521L1.25 15.7021V6.42336ZM10.625 18.9521V9.67336L18.75 6.42336V15.7021L10.625 18.9521Z" fill="#FAFAFA"/>
</svg>
