<svg width="20" height="21" viewBox="0 0 20 21" fill="none" xmlns="http://www.w3.org/2000/svg">
<path d="M19.4553 6.3933C18.8935 5.59314 17.9767 5.11726 16.9989 5.11831C15.3442 5.12014 14.0031 6.46116 14.0013 8.11594C14.0013 8.14692 14.005 8.17656 14.006 8.20721L12.244 8.79474C11.3733 7.80219 9.9519 7.50363 8.75542 8.06199L5.73081 5.03737C6.4243 3.53101 5.76536 1.74771 4.25901 1.05421C2.75269 0.360719 0.96939 1.01966 0.275894 2.52601C-0.417601 4.03237 0.241338 5.81567 1.74769 6.50917C2.62429 6.91277 3.64149 6.87038 4.4815 6.3953L7.3952 9.30867C7.00992 9.98414 6.9063 10.7842 7.10676 11.5356L5.23124 12.7859C3.93751 11.7269 2.03018 11.9172 0.97118 13.2109C-0.0879027 14.5047 0.102406 16.412 1.39614 17.471C2.68987 18.5301 4.5972 18.3398 5.6562 17.046C6.27105 16.2949 6.48842 15.2946 6.24074 14.3561L8.11626 13.1057C8.90418 13.7501 9.96676 13.9472 10.9334 13.6283L11.866 15.0089C10.6744 16.2036 10.677 18.1381 11.8718 19.3297C13.0665 20.5213 15.001 20.5187 16.1926 19.3239C17.3841 18.1291 17.3815 16.1947 16.1868 15.0031C15.4925 14.3106 14.508 13.9935 13.54 14.1506L12.4478 12.5125C12.8954 11.8923 13.0823 11.1215 12.9688 10.3652L14.5489 9.83863C15.5002 11.1935 17.3698 11.5206 18.7247 10.5692C20.0796 9.6178 20.4067 7.74819 19.4553 6.3933ZM3.00995 6.11752C1.72292 6.11606 0.679909 5.07305 0.678452 3.78602C0.678452 2.49837 1.7223 1.45452 3.00995 1.45452C4.2976 1.45452 5.34145 2.49837 5.34145 3.78602C5.34145 5.07367 4.2976 6.11752 3.00995 6.11752ZM5.02636 5.99761C5.15284 5.88249 5.26938 5.75693 5.37475 5.62224L8.92796 9.17578C9.02783 9.27566 9.02783 9.43765 8.92796 9.53753C8.91605 9.54944 8.90302 9.56014 8.88899 9.56947C8.78719 9.63616 8.65259 9.62226 8.56657 9.53616L5.02636 5.99761ZM3.34302 17.4419C2.05537 17.4419 1.01152 16.3981 1.01152 15.1104C1.01152 13.8228 2.05537 12.7789 3.34302 12.7789C4.63067 12.7789 5.67452 13.8228 5.67452 15.1104C5.67306 16.3975 4.63009 17.4405 3.34302 17.4419ZM5.9956 13.7189C5.91208 13.5609 5.81466 13.4108 5.70449 13.2702L7.35186 12.1711C7.43538 12.329 7.5328 12.4791 7.64297 12.6197L5.9956 13.7189ZM10.3751 12.8013L10.5417 13.0477C9.29354 13.3481 8.0382 12.5798 7.73781 11.3316C7.61466 10.8199 7.66882 10.2815 7.89144 9.80461L8.09594 10.0088C8.46195 10.3628 9.04561 10.3531 9.39958 9.98705C9.74527 9.62967 9.74527 9.06253 9.39958 8.70515L9.26636 8.57192C10.4793 8.1582 11.798 8.80611 12.2117 10.0191C12.2953 10.2642 12.3373 10.5216 12.3359 10.7805C12.3374 11.1755 12.2374 11.5641 12.0455 11.9093L11.9522 11.7687C11.6615 11.3369 11.0757 11.2226 10.6439 11.5134C10.22 11.7988 10.1008 12.3701 10.3751 12.8013ZM14.0013 14.7774C15.2883 14.7788 16.3313 15.8218 16.3328 17.1089C16.3328 18.3965 15.2889 19.4404 14.0013 19.4404C12.7136 19.4404 11.6698 18.3965 11.6698 17.1089C11.6698 15.8212 12.7136 14.7774 14.0013 14.7774ZM12.8632 14.3364C12.6965 14.4056 12.5366 14.4899 12.3852 14.5882L10.9334 12.4379C10.8506 12.3096 10.8874 12.1386 11.0156 12.0558C11.1439 11.9731 11.3149 12.0099 11.3977 12.1381L12.8632 14.3364ZM12.8046 9.71835C12.7591 9.59669 12.7058 9.47808 12.645 9.36329L14.1032 8.87734C14.1356 9.00196 14.176 9.12432 14.2241 9.24372L12.8046 9.71835ZM16.9989 10.4474C15.7113 10.4474 14.6674 9.4036 14.6674 8.11594C14.6674 6.82829 15.7113 5.78445 16.9989 5.78445C18.2866 5.78445 19.3304 6.82829 19.3304 8.11594C19.329 9.40301 18.286 10.446 16.9989 10.4474Z" fill="#FAFAFA"/>
</svg>
