<svg width="22" height="22" viewBox="0 0 22 22" fill="none" xmlns="http://www.w3.org/2000/svg">
<path d="M17.3454 1.6929H15.2541V0.859375C15.2541 0.384705 14.8694 0 14.3947 0H7.634C7.15933 0 6.77463 0.384705 6.77463 0.859375V1.6929H4.68359C3.49893 1.6929 2.53516 2.65668 2.53516 3.84134V19.8516C2.53516 21.0362 3.49893 22 4.68359 22H17.3454C18.5301 22 19.4939 21.0362 19.4939 19.8516V3.84134C19.4939 2.65668 18.5299 1.6929 17.3454 1.6929ZM13.5353 1.71875V3.38597H8.49321C8.49321 2.81479 8.49321 2.34297 8.49321 1.71875H13.5353ZM17.7751 19.8516C17.7751 20.0886 17.5823 20.2812 17.3454 20.2812H4.68359C4.44659 20.2812 4.25391 20.0886 4.25391 19.8516V3.84134C4.25391 3.60451 4.44659 3.41165 4.68359 3.41165H6.77446V4.24535C6.77446 4.72002 7.15933 5.10472 7.63383 5.10472H14.3947C14.8692 5.10472 15.2541 4.72002 15.2541 4.24535V3.41165H17.3454C17.5823 3.41165 17.7751 3.60451 17.7751 3.84134V19.8516ZM15.0021 10.034C15.3378 10.3697 15.3378 10.9139 15.0021 11.2494L10.4861 15.7655C10.1505 16.1012 9.60637 16.1012 9.27068 15.7655L7.0264 13.5212C6.69087 13.1857 6.69087 12.6415 7.0264 12.3058C7.36209 11.9703 7.90608 11.9703 8.24178 12.3058L9.87845 13.9425L13.7868 10.0342C14.1225 9.69852 14.6664 9.69852 15.0021 10.034Z" fill="#FAFAFA"/>
</svg>
