<svg width="158" height="22" viewBox="0 0 158 22" fill="none" xmlns="http://www.w3.org/2000/svg">
<path d="M14.0575 4.05653C14.185 4.13144 14.2788 4.22912 14.3391 4.34883C14.3994 4.46891 14.388 4.61138 14.3056 4.77626L12.4024 7.47599C12.3196 7.60378 12.231 7.67685 12.1377 7.69558C12.0435 7.71431 11.9292 7.68236 11.7943 7.59974C11.4259 7.32249 11.0204 7.10878 10.5778 6.95859C10.1348 6.80877 9.66568 6.73386 9.17011 6.73386C8.55432 6.73386 7.9878 6.85026 7.46943 7.08271C6.95144 7.31515 6.50439 7.63389 6.12904 8.03892C5.75331 8.44395 5.46068 8.91619 5.25076 9.45635C5.0401 9.99652 4.93533 10.5741 4.93533 11.1888C4.93533 11.8039 5.0401 12.3793 5.25076 12.9155C5.46068 13.4516 5.75331 13.9205 6.12904 14.3215C6.50439 14.7229 6.95144 15.0398 7.46943 15.2722C7.98743 15.5047 8.55432 15.6211 9.17011 15.6211C9.66568 15.6211 10.1388 15.5443 10.5896 15.3905C11.0399 15.237 11.4491 15.0211 11.8171 14.7434C11.952 14.6608 12.0649 14.6274 12.1549 14.6421C12.245 14.6571 12.3355 14.7247 12.4255 14.8448L14.3516 17.6121C14.4339 17.777 14.4453 17.9158 14.3854 18.0285C14.3251 18.1409 14.231 18.2349 14.1038 18.3098C13.3979 18.7824 12.6376 19.1481 11.823 19.4066C11.0079 19.6655 10.1502 19.7948 9.24952 19.7948C8.45359 19.7948 7.68965 19.6934 6.95732 19.4911C6.22572 19.2884 5.54045 19.0001 4.90224 18.6248C4.26402 18.2499 3.6839 17.8019 3.16222 17.2805C2.64055 16.7591 2.19167 16.1818 1.81594 15.548C1.44059 14.9142 1.15163 14.2315 0.949059 13.5004C0.745022 12.7693 0.643555 12.0063 0.643555 11.2112C0.643555 10.4166 0.745022 9.65318 0.947589 8.92206C1.15016 8.19095 1.43912 7.50463 1.81447 6.86348C2.19019 6.22233 2.63871 5.6392 3.16075 5.11409C3.68279 4.58898 4.26255 4.14099 4.90077 3.76974C5.53898 3.39849 6.22425 3.10986 6.95585 2.90349C7.68818 2.69712 8.45212 2.59393 9.24805 2.59393C10.1491 2.59393 10.9995 2.71952 11.7991 2.97106C12.599 3.22223 13.3516 3.58393 14.0575 4.05653Z" fill="#FAFAFA"/>
<path d="M16.2656 12.4149C16.2656 11.7249 16.3539 11.061 16.5303 10.4235C16.7068 9.78643 16.9542 9.19558 17.2737 8.65175C17.5924 8.10828 17.9755 7.61328 18.4225 7.16675C18.8692 6.72059 19.3666 6.34016 19.9148 6.02509C20.4629 5.71003 21.0537 5.46657 21.6886 5.29398C22.3231 5.12139 22.9856 5.0351 23.6768 5.0351C24.6977 5.0351 25.6569 5.22458 26.5546 5.60317C27.4517 5.98213 28.2325 6.5032 28.8972 7.16675C29.5619 7.83067 30.0872 8.61062 30.474 9.50661C30.8607 10.403 31.0541 11.3724 31.0541 12.4149C31.0541 13.1049 30.9655 13.7666 30.7894 14.4004C30.613 15.0342 30.3652 15.6247 30.0461 16.1722C29.727 16.7197 29.3442 17.2166 28.8972 17.6627C28.4502 18.1092 27.9527 18.4915 27.405 18.8102C26.8568 19.1294 26.2693 19.3746 25.6425 19.5472C25.0157 19.7195 24.3602 19.8061 23.6771 19.8061C22.986 19.8061 22.3235 19.7198 21.689 19.5472C21.0544 19.375 20.4633 19.1294 19.9151 18.8102C19.367 18.4915 18.8696 18.1092 18.4229 17.6627C17.9759 17.2166 17.5928 16.7197 17.274 16.1722C16.9546 15.6247 16.7072 15.0342 16.5307 14.4004C16.3535 13.767 16.2656 13.1049 16.2656 12.4149ZM20.3765 12.4149C20.3765 12.9099 20.4534 13.373 20.6074 13.8041C20.7611 14.2355 20.9791 14.6086 21.2603 14.9233C21.5419 15.2384 21.8835 15.4877 22.2849 15.6713C22.6867 15.8553 23.1389 15.9471 23.6422 15.9471C24.1304 15.9471 24.5716 15.8553 24.9657 15.6713C25.3598 15.4877 25.694 15.2384 25.9679 14.9233C26.2418 14.6083 26.4521 14.2352 26.5987 13.8041C26.7451 13.373 26.8186 12.9099 26.8186 12.4149C26.8186 11.935 26.7454 11.4774 26.5987 11.0423C26.4524 10.6075 26.2421 10.2249 25.9679 9.89475C25.694 9.565 25.3594 9.30391 24.9657 9.11296C24.5716 8.92165 24.1304 8.82617 23.6422 8.82617C23.1389 8.82617 22.6867 8.92201 22.2849 9.11296C21.8835 9.30428 21.5416 9.565 21.2603 9.89475C20.9787 10.2249 20.7607 10.6075 20.6074 11.0423C20.4534 11.4774 20.3765 11.935 20.3765 12.4149Z" fill="#FAFAFA"/>
<path d="M33.587 5.46127C33.6844 5.37902 33.7873 5.32614 33.8965 5.30374C34.005 5.28134 34.1086 5.26996 34.206 5.26996H35.9067C36.0416 5.26996 36.1582 5.29419 36.256 5.34303C36.3534 5.39187 36.4361 5.4576 36.5034 5.53949C36.571 5.62174 36.6255 5.71538 36.667 5.82004C36.7082 5.92506 36.7479 6.03302 36.785 6.14502L37.0218 7.13245C37.1343 6.90074 37.3162 6.66132 37.5681 6.41455C37.8195 6.16779 38.1313 5.94342 38.503 5.74146C38.8746 5.53949 39.3044 5.37314 39.7926 5.24242C40.2801 5.11169 40.8249 5.04596 41.4257 5.04596C42.2815 5.04596 43.0455 5.21047 43.7175 5.53949C44.3895 5.86851 44.9601 6.31724 45.4292 6.88568C45.8983 7.45412 46.2553 8.11804 46.4994 8.87816C46.7435 9.63829 46.8652 10.4495 46.8652 11.3117V18.6801C46.8652 18.9654 46.8034 19.1806 46.6795 19.3271C46.5553 19.4733 46.3586 19.5467 46.0884 19.5467H43.4866C43.1638 19.5467 42.9422 19.4924 42.8219 19.3833C42.7017 19.275 42.6418 19.0627 42.6418 18.748V11.4248C42.6418 11.1024 42.5686 10.7968 42.422 10.5078C42.2756 10.2192 42.0823 9.96437 41.8418 9.74294C41.6018 9.52188 41.3293 9.34746 41.0257 9.21967C40.7213 9.09225 40.4117 9.02835 40.0963 9.02835C39.8261 9.02835 39.55 9.08857 39.2687 9.20829C38.9871 9.32836 38.7283 9.49508 38.4916 9.70879C38.2548 9.92251 38.0563 10.1737 37.8949 10.4627C37.7331 10.7513 37.6412 11.0645 37.6188 11.402V18.7143C37.6188 18.842 37.5945 18.9695 37.546 19.0965C37.4971 19.2243 37.4236 19.3216 37.3262 19.3892C37.2284 19.4494 37.1365 19.4905 37.0501 19.5129C36.964 19.5357 36.8644 19.5467 36.7516 19.5467H34.206C33.8833 19.5467 33.6506 19.4678 33.5079 19.3102C33.3653 19.1527 33.2939 18.943 33.2939 18.6801V6.10095C33.2939 5.95884 33.3259 5.82812 33.3895 5.70841C33.4531 5.5887 33.5414 5.49542 33.6542 5.42786L33.587 5.46127Z" fill="#FAFAFA"/>
<path d="M50.4354 3.03254C50.4354 2.8001 50.5122 2.62568 50.6663 2.50964C50.8199 2.3936 51.0398 2.2827 51.3251 2.17768L53.8816 1.28903C53.9191 1.28169 53.9548 1.27802 53.9886 1.27802C54.022 1.27802 54.054 1.27802 54.0842 1.27802C54.3617 1.27802 54.5477 1.3588 54.6415 1.52001C54.7352 1.68121 54.7823 1.89309 54.7823 2.15565L54.7713 5.24939H56.3142C56.5543 5.24939 56.7495 5.32063 56.8999 5.46311C57.0502 5.60559 57.1252 5.8193 57.1252 6.10426V8.27557C57.1252 8.59064 57.0502 8.82124 56.8999 8.96739C56.7495 9.11354 56.5543 9.18698 56.3142 9.18698H54.7713L54.7823 18.6816C54.7823 18.9669 54.6996 19.1821 54.5349 19.3286C54.3694 19.4747 54.1404 19.5482 53.8478 19.5482H51.3019C50.7236 19.5482 50.4346 19.2596 50.4346 18.6819L50.4236 9.18735H49.2634C48.6851 9.18735 48.3965 8.88367 48.3965 8.27594V6.10462C48.3965 5.53471 48.6854 5.24976 49.2634 5.24976H50.4236L50.4354 3.03254Z" fill="#FAFAFA"/>
<path d="M70.7974 17.8371C70.1368 18.4449 69.3934 18.9193 68.5677 19.2604C67.7416 19.6016 66.867 19.7723 65.9432 19.7723C64.9145 19.7723 63.9421 19.5851 63.0264 19.2101C62.1102 18.8352 61.3066 18.3156 60.6161 17.6521C59.925 16.9881 59.3772 16.2064 58.9717 15.3063C58.5662 14.4063 58.3633 13.4277 58.3633 12.3701C58.3633 11.7102 58.4442 11.0706 58.6056 10.4518C58.7669 9.83306 58.9956 9.2536 59.2927 8.7138C59.589 8.17364 59.9496 7.67717 60.3735 7.2233C60.7978 6.76943 61.2727 6.38129 61.7985 6.05888C62.3238 5.73647 62.8948 5.48529 63.5105 5.30499C64.126 5.12506 64.7756 5.0351 65.459 5.0351C66.0821 5.0351 66.6865 5.11772 67.2725 5.28259C67.8582 5.44784 68.4082 5.68028 68.9225 5.97993C69.4368 6.27994 69.9078 6.64017 70.3357 7.05989C70.7636 7.47998 71.1316 7.93936 71.4397 8.43803C71.7474 8.93707 71.986 9.46916 72.1547 10.0354C72.3235 10.6016 72.408 11.1848 72.408 11.7848C72.408 12.1748 72.4022 12.4935 72.3915 12.741C72.3801 12.9885 72.322 13.1853 72.2169 13.3318C72.1114 13.478 71.9367 13.5793 71.693 13.6355C71.4489 13.6921 71.0904 13.72 70.6173 13.72H62.5084C62.583 14.1999 62.7352 14.6013 62.9646 14.9237C63.1936 15.2465 63.458 15.5032 63.7583 15.6941C64.0587 15.8854 64.3782 16.0224 64.716 16.1046C65.0539 16.1873 65.373 16.2284 65.6733 16.2284C65.9435 16.2284 66.2215 16.2001 66.5068 16.1439C66.792 16.0877 67.0678 16.0128 67.3347 15.9192C67.6008 15.8256 67.845 15.7165 68.0666 15.5928C68.2883 15.469 68.4663 15.3397 68.6019 15.2046C68.7218 15.1073 68.8251 15.0342 68.9115 14.985C68.9975 14.9365 69.0894 14.9119 69.1872 14.9119C69.285 14.9119 69.3846 14.9457 69.4857 15.0133C69.5868 15.0809 69.7015 15.1785 69.8291 15.3056L71.0228 16.6558C71.1055 16.7535 71.1581 16.8413 71.1809 16.9198C71.2033 16.9988 71.2147 17.0792 71.2147 17.1618C71.2147 17.312 71.1735 17.4417 71.0908 17.55C71.0077 17.6594 70.9103 17.7549 70.7974 17.8371ZM65.3803 8.46631C65.0873 8.46631 64.8039 8.52469 64.53 8.64073C64.2557 8.75714 63.9988 8.91283 63.7583 9.10745C63.5183 9.30244 63.3021 9.52387 63.1109 9.771C62.9194 10.0185 62.7635 10.2697 62.6433 10.5249H68.3986C68.2405 10.2326 68.0699 9.96232 67.8861 9.71482C67.7019 9.46732 67.4917 9.24993 67.2553 9.06229C67.0189 8.87501 66.7483 8.72849 66.4446 8.62347C66.1402 8.51882 65.7858 8.46631 65.3803 8.46631Z" fill="#FAFAFA"/>
<path d="M75.0555 5.46127C75.1529 5.37902 75.2558 5.32614 75.365 5.30374C75.4735 5.28134 75.5771 5.26996 75.6746 5.26996H77.3752C77.5102 5.26996 77.6267 5.29419 77.7245 5.34303C77.8219 5.39187 77.9046 5.4576 77.9719 5.53949C78.0395 5.62174 78.094 5.71538 78.1355 5.82004C78.1767 5.92506 78.2164 6.03302 78.2535 6.14502L78.4903 7.13245C78.6028 6.90074 78.7851 6.66132 79.0366 6.41455C79.288 6.16779 79.5998 5.94342 79.9715 5.74146C80.3431 5.53949 80.7729 5.37314 81.2611 5.24242C81.7486 5.11169 82.2935 5.04596 82.8942 5.04596C83.75 5.04596 84.514 5.21047 85.186 5.53949C85.858 5.86851 86.4282 6.31724 86.8977 6.88568C87.3668 7.45412 87.7238 8.11804 87.9679 8.87816C88.212 9.63829 88.3337 10.4495 88.3337 11.3117V18.6801C88.3337 18.9654 88.2719 19.1806 88.148 19.3271C88.0238 19.4733 87.8271 19.5467 87.5565 19.5467H84.9548C84.632 19.5467 84.4103 19.4924 84.2901 19.3833C84.1699 19.275 84.1099 19.0627 84.1099 18.748V11.4248C84.1099 11.1024 84.0368 10.7968 83.8901 10.5078C83.7438 10.2192 83.5504 9.96437 83.31 9.74294C83.0699 9.52188 82.7975 9.34746 82.4938 9.21967C82.1894 9.09225 81.8799 9.02835 81.5644 9.02835C81.2942 9.02835 81.0181 9.08857 80.7369 9.20829C80.4553 9.32836 80.1965 9.49508 79.9597 9.70879C79.7229 9.92251 79.5244 10.1737 79.363 10.4627C79.2013 10.7513 79.1094 11.0645 79.0866 11.402V18.7143C79.0866 18.842 79.0623 18.9695 79.0138 19.0965C78.9649 19.2243 78.8914 19.3216 78.7939 19.3892C78.6961 19.4494 78.6042 19.4905 78.5178 19.5129C78.4318 19.5357 78.3322 19.5467 78.2193 19.5467H75.6738C75.351 19.5467 75.1183 19.4678 74.9757 19.3102C74.833 19.1527 74.7617 18.943 74.7617 18.6801V6.10095C74.7617 5.95884 74.7937 5.82812 74.8573 5.70841C74.9209 5.5887 75.0091 5.49542 75.122 5.42786L75.0555 5.46127Z" fill="#FAFAFA"/>
<path d="M91.9041 3.03254C91.9041 2.8001 91.981 2.62568 92.135 2.50964C92.2887 2.3936 92.5085 2.2827 92.7938 2.17768L95.3504 1.28903C95.3879 1.28169 95.4235 1.27802 95.4573 1.27802C95.4908 1.27802 95.5228 1.27802 95.5529 1.27802C95.8305 1.27802 96.0165 1.3588 96.1103 1.52001C96.204 1.68121 96.2511 1.89309 96.2511 2.15565L96.24 5.24939H97.783C98.0231 5.24939 98.2183 5.32063 98.3686 5.46311C98.519 5.60559 98.5936 5.8193 98.5936 6.10426V8.27557C98.5936 8.59064 98.5186 8.82124 98.3686 8.96739C98.2183 9.11354 98.0231 9.18698 97.783 9.18698H96.24L96.2511 18.6816C96.2511 18.9669 96.1683 19.1821 96.0036 19.3286C95.8382 19.4747 95.6092 19.5482 95.3165 19.5482H92.7707C92.1924 19.5482 91.9038 19.2596 91.9038 18.6819L91.8927 9.18735H90.7325C90.1542 9.18735 89.8652 8.88367 89.8652 8.27594V6.10462C89.8652 5.53471 90.1542 5.24976 90.7325 5.24976H91.8927L91.9041 3.03254Z" fill="#FAFAFA"/>
<path d="M120.267 13.4177C120.267 12.7277 120.355 12.0638 120.531 11.4263C120.708 10.7888 120.956 10.1983 121.275 9.65449C121.594 9.11102 121.977 8.61602 122.424 8.1695C122.87 7.72334 123.368 7.34291 123.916 7.02784C124.464 6.71277 125.055 6.46931 125.69 6.29672C126.324 6.12414 126.987 6.03784 127.678 6.03784C128.699 6.03784 129.658 6.22732 130.556 6.60592C131.453 6.98488 132.234 7.50595 132.898 8.1695C133.563 8.83341 134.088 9.61336 134.475 10.5094C134.861 11.4057 135.055 12.3752 135.055 13.4177C135.055 14.1076 134.966 14.7694 134.79 15.4032C134.614 16.037 134.366 16.6274 134.047 17.175C133.728 17.7225 133.345 18.2193 132.898 18.6655C132.451 19.112 131.954 19.4943 131.406 19.813C130.858 20.1321 130.27 20.3774 129.643 20.55C129.016 20.7226 128.361 20.8089 127.678 20.8089C126.987 20.8089 126.324 20.7226 125.69 20.55C125.055 20.3778 124.464 20.1321 123.916 19.813C123.368 19.4943 122.87 19.112 122.424 18.6655C121.977 18.2193 121.594 17.7225 121.275 17.175C120.956 16.6274 120.708 16.037 120.531 15.4032C120.355 14.7697 120.267 14.108 120.267 13.4177ZM124.377 13.4177C124.377 13.9127 124.454 14.3757 124.608 14.8068C124.762 15.2379 124.98 15.611 125.262 15.9261C125.543 16.2411 125.884 16.4905 126.286 16.6741C126.688 16.8581 127.14 16.9499 127.644 16.9499C128.131 16.9499 128.573 16.8581 128.967 16.6741C129.361 16.4905 129.695 16.2411 129.969 15.9261C130.243 15.611 130.453 15.2379 130.6 14.8068C130.746 14.3757 130.82 13.9127 130.82 13.4177C130.82 12.9377 130.747 12.4802 130.6 12.045C130.454 11.6103 130.243 11.2276 129.969 10.8975C129.695 10.5677 129.361 10.307 128.967 10.1157C128.573 9.92439 128.131 9.82892 127.644 9.82892C127.14 9.82892 126.688 9.92439 126.286 10.1157C125.884 10.307 125.543 10.5677 125.262 10.8975C124.98 11.2276 124.762 11.6103 124.608 12.045C124.455 12.4802 124.377 12.9377 124.377 13.4177Z" fill="#F0EEF2"/>
<path d="M108.054 11.6188C108.054 12.7913 107.103 13.7416 105.929 13.7416C104.755 13.7416 103.803 12.7913 103.803 11.6188C103.803 10.4463 104.755 9.49554 105.929 9.49554C107.103 9.49554 108.054 10.4463 108.054 11.6188Z" fill="#FAFAFA"/>
<path d="M114.194 11.619C114.194 12.7915 113.242 13.7422 112.068 13.7422C110.894 13.7422 109.942 12.7915 109.942 11.619C109.942 10.4465 110.894 9.49579 112.068 9.49579C113.242 9.49579 114.194 10.4461 114.194 11.619Z" fill="#FAFAFA"/>
<path d="M103.312 16.5357C103.312 16.5357 103.516 16.5706 103.874 16.6308C104.209 16.6914 104.687 16.7777 105.26 16.8816C105.536 16.9349 105.833 16.9815 106.139 17.0355C106.446 17.084 106.764 17.1376 107.089 17.1806C107.25 17.2019 107.414 17.2232 107.579 17.2452C107.743 17.2617 107.91 17.2786 108.076 17.2959C108.409 17.3245 108.743 17.3535 109.074 17.3609C109.406 17.3763 109.735 17.3708 110.06 17.3642C110.221 17.3502 110.384 17.3531 110.544 17.3403C110.702 17.3227 110.863 17.3186 111.018 17.2981C111.331 17.2646 111.637 17.2232 111.932 17.1728C112.229 17.1251 112.511 17.0649 112.78 17.008C112.917 16.9837 113.041 16.9422 113.167 16.9158C113.294 16.8886 113.415 16.8615 113.526 16.8288C113.75 16.7649 113.962 16.7234 114.129 16.6727C114.468 16.5787 114.686 16.5357 114.686 16.5357C114.686 16.5357 114.601 16.7296 114.413 17.0502C114.321 17.2136 114.183 17.384 114.024 17.5889C113.862 17.7901 113.656 17.9936 113.42 18.2109C113.298 18.3138 113.166 18.4151 113.03 18.5238C112.89 18.6281 112.735 18.7173 112.579 18.8201C112.26 19.0085 111.904 19.1844 111.518 19.3218C111.132 19.4635 110.718 19.5663 110.291 19.6372C109.864 19.697 109.425 19.7272 108.99 19.7088C108.553 19.6963 108.124 19.6331 107.709 19.5469C107.297 19.4528 106.9 19.3342 106.532 19.1826C105.793 18.8895 105.167 18.4992 104.681 18.107C104.192 17.717 103.845 17.3223 103.625 17.0285C103.406 16.7315 103.312 16.5357 103.312 16.5357Z" fill="#F0EEF2"/>
<path d="M149.479 11.0889C149.304 10.421 149.037 9.83746 148.678 9.33805C148.318 8.83865 147.862 8.44426 147.312 8.1549C146.761 7.86591 146.109 7.72123 145.357 7.72123C144.968 7.72123 144.598 7.76566 144.249 7.85416C143.899 7.94265 143.581 8.05796 143.293 8.19897C143.007 8.34034 142.752 8.50118 142.531 8.68185C142.31 8.86252 142.137 9.04502 142.012 9.22899V4.9095C142.012 4.88453 142.01 4.85919 142.008 4.83349C142.009 4.80705 142.01 4.78024 142.01 4.75344C142.01 4.1178 141.658 3.6026 141.223 3.6026H134.591C134.156 3.6026 133.804 4.1178 133.804 4.75344C133.804 5.38871 134.156 5.90391 134.591 5.90391H138.212V8.59702V8.64623V11.5865V11.6555V19.7022C138.212 19.9328 138.274 20.1175 138.4 20.2559C138.525 20.3944 138.73 20.4634 139.013 20.4634H141.25C141.349 20.4634 141.437 20.4535 141.513 20.4337C141.588 20.4138 141.669 20.3779 141.755 20.325C141.841 20.2659 141.905 20.1799 141.948 20.0679C141.991 19.9559 142.012 19.8439 142.012 19.7319V13.2077C142.032 12.911 142.103 12.6411 142.225 12.3969C142.347 12.1531 142.499 11.9438 142.68 11.7693C142.862 11.5949 143.066 11.4598 143.294 11.364C143.522 11.2685 143.754 11.2207 143.992 11.2207C144.269 11.2207 144.531 11.2718 144.778 11.3739C145.026 11.4763 145.242 11.6177 145.427 11.7991C145.611 11.9805 145.758 12.1931 145.867 12.4366C145.976 12.6804 146.031 12.9441 146.031 13.2275V19.7617C146.031 20.0382 146.083 20.2247 146.189 20.3202C146.294 20.4157 146.489 20.4634 146.772 20.4634H149.058C149.296 20.4634 149.469 20.3992 149.578 20.2706C149.687 20.1421 149.741 19.9526 149.741 19.7022V13.2275C149.741 12.4696 149.654 11.7569 149.479 11.0889Z" fill="#F0EEF2"/>
<path d="M153.001 2.19308C152.968 2.04583 152.941 1.91437 152.921 1.79907C152.901 1.68376 152.894 1.56883 152.901 1.45499C152.916 1.16453 153.021 0.925843 153.213 0.738565C153.404 0.551655 153.682 0.467564 154.046 0.486659C155.655 0.572954 156.516 1.00406 156.631 1.77997C156.765 2.76446 156.884 3.75373 156.987 4.74703C157.09 5.74033 157.173 6.74575 157.239 7.76293C157.303 8.7801 157.342 9.81159 157.353 10.8578C157.365 11.9036 157.341 12.9707 157.283 14.0591C157.272 14.267 157.251 14.4656 157.219 14.6562C157.188 14.8471 157.137 15.0161 157.067 15.1629C156.997 15.3098 156.905 15.4273 156.791 15.5147C156.677 15.6021 156.526 15.6407 156.34 15.6308L155.042 15.3741C154.773 15.3286 154.588 15.2382 154.486 15.1027C154.384 14.9672 154.329 14.7799 154.321 14.5402C154.34 12.6384 154.239 10.6415 154.019 8.54986C153.798 6.45786 153.458 4.33906 153.001 2.19308ZM155.18 21.5109C154.879 21.4947 154.598 21.4353 154.338 21.3332C154.079 21.2307 153.857 21.0938 153.673 20.923C153.49 20.7519 153.347 20.5543 153.244 20.3307C153.142 20.1071 153.098 19.8654 153.111 19.6062C153.135 19.1707 153.328 18.8277 153.69 18.5765C154.052 18.3257 154.523 18.2156 155.105 18.2468C155.375 18.2611 155.632 18.3246 155.876 18.4363C156.12 18.5483 156.333 18.6922 156.516 18.8681C156.699 19.0444 156.842 19.2467 156.944 19.4758C157.046 19.705 157.091 19.9385 157.079 20.1768C157.054 20.6226 156.872 20.9638 156.532 21.2002C156.191 21.4375 155.74 21.541 155.18 21.5109Z" fill="#F0EEF2"/>
</svg>
